HIERARCHY
ROOT Hips
{
	OFFSET -3.958830 18.904000 13.208200
	CHANNELS 6 Xposition Yposition Zposition Zrotation Yrotation Xrotation 
	JOINT LHipJoint
	{
		OFFSET 0.000000 0.000000 0.000000
		CHANNELS 3 Zrotation Yrotation Xrotation
		JOINT LeftUpLeg
		{
			OFFSET 1.800000 -1.400000 0.085000
			CHANNELS 3 Zrotation Yrotation Xrotation
			JOINT LeftLeg
			{
				OFFSET 2.215000 -6.000000 0.000000
				CHANNELS 3 Zrotation Yrotation Xrotation
				JOINT LeftFoot
				{
					OFFSET 2.500000 -6.900000 0.000000
					CHANNELS 3 Zrotation Yrotation Xrotation
					JOINT LeftToeBase
					{
						OFFSET 0.200000 -0.500000 1.950000
						CHANNELS 3 Zrotation Yrotation Xrotation
						End Site
						{
							OFFSET 0.000000 0.000000 0.000000
						}
					}
				}
			}
		}
	}
	JOINT RHipJoint
	{
		OFFSET 0.000000 0.000000 0.000000
		CHANNELS 3 Zrotation Yrotation Xrotation
		JOINT RightUpLeg
		{
			OFFSET -1.800000 -1.400000 0.085000
			CHANNELS 3 Zrotation Yrotation Xrotation
			JOINT RightLeg
			{
				OFFSET -2.215000 -6.000000 0.000000
				CHANNELS 3 Zrotation Yrotation Xrotation
				JOINT RightFoot
				{
					OFFSET -2.500000 -6.900000 0.000000
					CHANNELS 3 Zrotation Yrotation Xrotation
					JOINT RightToeBase
					{
						OFFSET -0.200000 -0.500000 1.950000
						CHANNELS 3 Zrotation Yrotation Xrotation
						End Site
						{
							OFFSET 0.000000 0.000000 0.000000
						}
					}
				}
			}
		}
	}
	JOINT LowerBack
	{
		OFFSET 0.000000 0.000000 0.000000
		CHANNELS 3 Zrotation Yrotation Xrotation
		JOINT Spine
		{
			OFFSET -0.087000 1.940000 -0.288900
			CHANNELS 3 Zrotation Yrotation Xrotation
			JOINT Spine1
			{
				OFFSET 0.000000 1.950000 0.060000
				CHANNELS 3 Zrotation Yrotation Xrotation
				JOINT Neck
				{
					OFFSET 0.000000 0.000000 0.000000
					CHANNELS 3 Zrotation Yrotation Xrotation
					JOINT Neck1
					{
						OFFSET 0.000000 1.600000 0.340000
						CHANNELS 3 Zrotation Yrotation Xrotation
						JOINT Head
						{
							OFFSET 0.000000 1.667000 -0.240000
							CHANNELS 3 Zrotation Yrotation Xrotation
							End Site
							{
								OFFSET 0.000000 0.000000 0.000000
							}
						}
					}
				}
				JOINT LeftShoulder
				{
					OFFSET 0.000000 0.000000 0.000000
					CHANNELS 3 Zrotation Yrotation Xrotation
					JOINT LeftArm
					{
						OFFSET 2.700000 1.550000 -0.730000
						CHANNELS 3 Zrotation Yrotation Xrotation
						JOINT LeftForeArm
						{
							OFFSET 5.450000 0.000000 0.000000
							CHANNELS 3 Zrotation Yrotation Xrotation
							JOINT LeftHand
							{
								OFFSET 3.450000 0.000000 0.000000
								CHANNELS 3 Zrotation Yrotation Xrotation
								JOINT LeftHandIndex1
								{
									OFFSET 0.750000 0.000000 0.000000
									CHANNELS 3 Zrotation Yrotation Xrotation
									End Site
									{
										OFFSET 0.000000 0.000000 0.000000
									}
								}
							}
						}
					}
				}
				JOINT RightShoulder
				{
					OFFSET 0.000000 0.000000 0.000000
					CHANNELS 3 Zrotation Yrotation Xrotation
					JOINT RightArm
					{
						OFFSET -2.700000 1.550000 -0.730000
						CHANNELS 3 Zrotation Yrotation Xrotation
						JOINT RightForeArm
						{
							OFFSET -5.450000 0.000000 0.000000
							CHANNELS 3 Zrotation Yrotation Xrotation
							JOINT RightHand
							{
								OFFSET -3.450000 0.000000 0.000000
								CHANNELS 3 Zrotation Yrotation Xrotation
								JOINT RightHandIndex1
								{
									OFFSET -0.750000 0.000000 0.000000
									CHANNELS 3 Zrotation Yrotation Xrotation
									End Site
									{
										OFFSET 0.000000 0.000000 0.000000
									}
								}
							}
						}
					}
				}
			}
		}
	}
}
MOTION
Frames: 8
Frame Time: 0.016667
-1.394950 18.099240 -2.999660 -5.444263 20.955856 -0.097304 -15.463610 13.286502 3.143188 -3.306769 -2.158402 -14.619227 -5.672586 4.208083 9.005884 -1.196331 3.347878 3.507553 0.673230 0.183280 0.555140 18.096287 -9.485508 3.932591 -4.981611 6.449692 -42.429951 1.887002 -7.650144 41.561841 -0.689102 -5.437563 2.540660 0.186520 0.100130 0.220570 -3.229388 -3.518763 -8.278059 11.124613 -4.238861 23.786115 3.448460 -2.600175 9.360070 2.180589 2.804036 -9.837295 2.099276 -2.413529 35.234763 -2.868240 0.911760 -26.626980 -11.282316 -10.178332 2.205162 -5.938331 -7.743454 -1.741906 5.503560 -30.424800 -1.342858 -3.536115 2.760412 1.081370 -0.012990 0.088260 0.212010 7.227891 6.905602 7.004470 8.438005 -5.479281 -5.388247 -22.391879 19.528346 -2.572007 1.729849 -1.278582 -0.395310 0.365620 -0.003760 -0.493830 
-1.390170 18.066620 -2.920270 -4.601371 22.375808 1.424683 -15.477526 13.334129 3.330106 -4.473437 -2.148639 -14.625979 -6.024261 4.017002 7.415694 -1.193810 3.258771 3.553986 0.677660 0.183340 0.569950 18.039045 -9.783195 3.533533 -4.977892 4.750157 -39.889027 1.355214 -5.485551 29.890329 -0.337912 -3.425271 3.238914 0.186620 0.096620 0.209140 -3.186015 -3.306323 -8.115711 9.539880 -3.764876 19.800231 4.211268 -2.976058 9.797294 2.017760 3.241527 -10.001996 2.694506 -2.625789 36.833796 -3.126400 0.842360 -25.780110 -11.515968 -11.278365 2.786793 -6.483690 -7.900526 -1.375089 1.442050 -30.689029 -0.353479 -3.515705 2.770143 1.077670 -0.015020 0.087880 0.216740 7.934479 7.678631 6.777839 5.663097 -2.080903 -4.360184 -18.333030 17.502063 -1.763552 1.774880 -1.210231 -0.398720 0.369680 -0.019490 -0.494890 
-1.379990 18.007800 -2.835440 -3.992246 23.444961 3.168756 -15.498468 13.239140 3.411802 -5.296831 -2.181509 -14.809878 -6.555202 3.859654 5.851097 -1.202124 3.220483 3.580691 0.654330 0.153200 0.546580 18.022496 -9.890283 3.325371 -5.332285 3.785405 -38.247429 1.398720 -4.263304 20.957093 -0.151702 -2.286531 3.663606 0.177740 0.125990 0.205210 -3.141225 -3.062275 -7.990049 7.992391 -3.148835 15.485793 5.228760 -3.133776 9.914470 1.794314 3.863245 -10.047924 3.662276 -3.263517 38.064264 -2.986440 0.229730 -24.242580 -11.961891 -12.428774 3.329397 -7.485058 -8.647944 -0.791020 -2.215479 -30.497474 0.544684 -3.536204 2.769204 1.063320 0.007570 0.062640 0.217360 8.992898 8.361533 6.421853 2.950129 0.636072 -3.479823 -13.852298 16.296064 -1.025324 1.795860 -1.133505 -0.411290 0.380050 -0.002680 -0.490190 
-1.370770 17.936700 -2.768170 -4.069965 24.576811 4.000147 -15.494614 13.149166 3.414770 -5.412204 -2.226882 -14.959105 -6.988294 3.855127 5.238623 -1.242048 3.285919 3.597428 0.586960 0.051670 0.510080 18.033379 -9.934600 3.231951 -5.805136 3.342709 -36.619056 1.906196 -3.660359 15.152069 -0.044522 -1.814637 3.870972 0.154110 0.192290 0.157630 -3.176530 -2.860442 -7.907672 7.571421 -2.870245 12.659919 5.761802 -3.174399 9.587047 1.585262 3.913453 -10.154808 3.666486 -3.658159 38.762662 -2.433570 -0.671990 -22.170390 -11.946961 -13.276848 3.796465 -8.983812 -9.178945 -0.228766 -6.289182 -31.118685 1.558543 -3.564440 2.717547 1.070490 0.033830 -0.004080 0.206750 9.440605 9.181926 6.188767 1.822100 3.687179 -2.894695 -10.454721 14.082882 -0.521372 1.829541 -1.031359 -0.488390 0.441290 0.043110 -0.505850 
-1.384600 17.887420 -2.725730 -3.623022 26.065087 3.860835 -15.569209 13.285706 3.489323 -5.735669 -2.237707 -14.718907 -7.091197 3.984456 5.606542 -1.250342 3.400244 3.605097 0.475450 -0.106230 0.462120 17.924034 -9.964675 3.140943 -6.715954 2.837785 -34.623734 2.295673 -3.484704 12.586730 0.004616 -1.689329 3.952344 0.083300 0.253550 0.104620 -2.947034 -3.103539 -7.963538 5.899210 -2.425893 12.835136 7.009010 -2.894124 8.165865 1.491946 3.455038 -10.635764 2.549624 -4.019838 39.806093 -1.787470 -1.768570 -21.153360 -12.288011 -14.294803 4.220712 -10.984378 -9.857298 0.140631 -9.735892 -31.766743 2.425388 -3.572455 2.620303 1.114930 0.031180 -0.047460 0.186020 10.054036 10.939276 6.532168 1.033480 5.987294 -2.547957 -7.430036 10.821379 -0.088013 1.911114 -0.877654 -0.579050 0.515240 0.102760 -0.520650 
-1.390570 17.823430 -2.695210 -3.523147 28.286166 4.014456 -15.580885 13.351280 3.523179 -6.288797 -2.459753 -15.444412 -6.410231 4.059217 7.186313 -1.240282 3.399132 3.629945 0.404220 -0.197270 0.401550 17.884280 -10.049957 3.085896 -7.564501 2.519041 -33.603642 2.708117 -3.659916 12.581339 0.024563 -1.783348 3.948863 0.027020 0.314350 0.109810 -2.944755 -3.139864 -7.971447 5.729227 -2.650943 12.550177 7.163118 -3.063781 6.943358 1.438225 3.066701 -11.004241 1.799176 -4.296858 39.572253 -1.749020 -2.622730 -19.567690 -12.317437 -15.140059 4.676870 -13.247763 -10.258289 0.429147 -13.322234 -32.902508 3.423857 -3.598237 2.618630 1.099550 0.060970 -0.081030 0.190780 10.144538 12.176684 6.631336 2.301198 8.486103 -2.264090 -6.248482 8.822282 0.023160 1.967936 -0.819233 -0.595420 0.531050 0.141080 -0.500570 
-1.408980 17.788210 -2.671330 -3.003721 29.756882 3.818457 -15.624079 13.501660 3.603030 -6.704064 -2.758299 -16.034120 -6.022942 4.306121 9.601296 -1.235140 3.502619 3.606853 0.336970 -0.283970 0.355390 17.799480 -10.158284 3.002078 -7.825448 2.352569 -32.865410 1.803772 -3.802283 14.776801 0.045654 -1.918870 3.922364 -0.016560 0.360870 0.092000 -2.820829 -3.314442 -8.003808 4.917033 -2.312860 13.455327 7.705315 -2.639983 5.519014 1.417785 2.323623 -11.259671 0.290171 -4.560483 39.429235 -1.655910 -3.678330 -18.484810 -13.065071 -15.849336 4.822016 -15.872401 -11.512099 1.072295 -16.958898 -32.072053 4.181662 -3.634804 2.576450 1.095970 0.076550 -0.119190 0.178360 10.979880 13.822284 6.877796 3.439302 10.263270 -2.233217 -6.185211 7.310332 0.031930 2.008921 -0.767890 -0.627330 0.559430 0.183050 -0.494120 
-1.427760 17.784560 -2.653840 -3.216901 30.454013 2.795775 -15.636882 13.645489 3.647995 -6.311340 -2.997179 -16.517723 -5.854582 4.599143 11.904303 -1.264968 3.699912 3.531944 0.282840 -0.353270 0.305880 17.744450 -10.289787 2.921112 -7.140530 2.555941 -31.557134 0.933531 -3.978554 18.052619 0.063304 -2.193995 3.830155 -0.023510 0.414460 0.082210 -2.781289 -3.407119 -8.009051 5.249210 -1.888846 14.915315 7.914309 -1.969917 4.736441 1.520881 1.553110 -11.342106 -0.958144 -4.593108 38.377153 -1.962730 -4.408040 -16.974290 -13.975486 -16.416172 4.847829 -19.467711 -12.787320 1.659819 -19.269538 -30.697291 4.289272 -3.708548 2.547679 1.075950 0.114150 -0.180920 0.156350 11.679065 15.446798 7.003745 5.027497 11.876761 -2.198691 -6.042275 7.927082 -0.028480 1.980947 -0.755825 -0.667690 0.580000 0.243410 -0.498170 
